<?xml version="1.0" standalone="no"?>
<!DOCTYPE svg PUBLIC "-//W3C//DTD SVG 20010904//EN"
 "http://www.w3.org/TR/2001/REC-SVG-20010904/DTD/svg10.dtd">
<svg version="1.0" xmlns="http://www.w3.org/2000/svg"
 width="512.000000pt" height="512.000000pt" viewBox="0 0 512.000000 512.000000"
 preserveAspectRatio="xMidYMid meet">

<g transform="translate(0.000000,512.000000) scale(0.100000,-0.100000)"
fill="#5353d3" stroke="none">
<path d="M2480 4754 c-14 -2 -103 -8 -198 -13 -127 -7 -178 -14 -190 -24 -40
-34 -87 -49 -257 -79 -54 -9 -79 -20 -109 -45 -22 -18 -48 -33 -58 -33 -10 0
-26 -4 -36 -9 -9 -5 -38 -16 -63 -25 -26 -10 -55 -29 -68 -46 -12 -17 -28 -30
-36 -30 -8 0 -29 -6 -47 -14 -18 -8 -54 -20 -80 -27 -27 -6 -48 -17 -48 -25 0
-14 -69 -74 -86 -74 -6 0 -24 -16 -38 -35 -15 -19 -51 -51 -81 -70 -68 -43
-152 -127 -170 -171 -7 -17 -23 -35 -36 -39 -26 -9 -58 -43 -59 -63 0 -22 -41
-73 -65 -82 -13 -5 -25 -20 -28 -37 -13 -64 -34 -108 -74 -149 -23 -24 -44
-51 -46 -61 -30 -112 -44 -145 -72 -176 -25 -27 -34 -49 -44 -108 -27 -158
-41 -230 -50 -247 -10 -19 -36 -129 -51 -216 -15 -90 -12 -338 5 -438 9 -48
26 -120 39 -160 22 -68 38 -136 51 -218 13 -78 18 -96 36 -115 24 -27 79 -149
79 -176 0 -12 17 -38 38 -58 42 -40 53 -60 81 -146 11 -33 28 -64 38 -70 28
-16 63 -58 63 -77 0 -18 45 -58 65 -58 7 0 20 -15 29 -33 22 -49 134 -161 183
-186 24 -12 43 -25 43 -29 0 -14 58 -72 71 -72 18 0 73 -50 82 -73 3 -9 12
-17 19 -17 33 0 148 -54 181 -85 20 -19 45 -35 54 -35 33 0 179 -50 198 -67
32 -30 72 -41 225 -62 138 -20 241 -41 285 -60 49 -21 199 -41 306 -41 121 0
244 18 339 49 70 24 136 36 284 56 132 18 153 25 199 59 32 24 156 66 194 66
11 0 36 15 55 34 23 23 62 44 116 62 67 23 83 33 93 56 6 15 18 28 25 28 8 0
14 4 14 9 0 5 13 14 29 19 16 6 42 27 57 47 16 20 46 45 66 56 48 24 153 131
175 176 9 20 30 41 48 50 21 10 40 31 54 60 12 24 35 52 51 61 25 14 35 32 57
100 22 69 33 88 65 113 21 17 38 38 38 47 0 20 20 78 38 109 7 12 12 27 12 33
0 6 10 22 23 36 24 26 38 70 57 189 6 39 23 104 36 145 13 41 29 89 35 107 18
56 31 273 24 396 -4 83 -14 141 -31 195 -13 42 -24 87 -24 99 0 12 -4 33 -9
46 -6 14 -17 69 -25 123 -25 156 -37 197 -61 219 -24 21 -75 135 -75 165 0 10
-17 34 -39 55 -21 21 -45 56 -52 79 -7 23 -19 52 -26 66 -7 14 -13 31 -13 37
0 7 -13 19 -29 27 -18 10 -36 33 -50 66 -15 35 -33 58 -56 71 -18 11 -40 34
-48 52 -19 38 -137 153 -175 170 -32 14 -43 23 -67 60 -10 15 -34 35 -54 43
-40 17 -81 52 -81 69 0 6 -23 17 -52 25 -75 19 -134 47 -155 73 -10 13 -41 31
-68 41 -28 10 -58 22 -67 27 -10 5 -26 9 -36 9 -9 0 -34 14 -55 31 -37 30 -81
44 -217 68 -64 12 -122 34 -147 58 -16 14 -61 19 -303 33 -182 10 -201 10
-250 4z m365 -1444 c33 -16 81 -38 106 -48 57 -25 143 -107 164 -159 9 -21 29
-51 45 -68 15 -16 49 -70 75 -120 46 -88 46 -92 47 -185 0 -57 -6 -119 -16
-155 -9 -32 -16 -87 -16 -120 0 -54 -4 -65 -30 -95 -16 -18 -30 -40 -30 -47 0
-22 -172 -186 -246 -233 -38 -25 -70 -48 -72 -52 -2 -5 -9 -8 -15 -8 -7 0 -23
-9 -37 -20 -17 -13 -41 -20 -73 -20 -26 0 -78 -8 -115 -19 -65 -18 -69 -18
-132 0 -36 10 -86 18 -112 19 -49 0 -82 16 -169 77 -26 18 -49 33 -53 33 -20
0 -198 177 -231 230 -15 25 -34 49 -41 53 -10 6 -14 30 -14 78 0 39 -4 78 -9
87 -5 9 -14 55 -19 102 -13 105 -2 208 26 248 11 15 29 48 38 72 10 24 33 57
51 73 18 16 36 43 41 59 8 33 87 132 112 142 8 3 22 10 30 15 8 5 53 28 100
50 72 34 103 42 200 53 153 18 306 2 395 -42z"/>
<path d="M2470 2929 c-143 -10 -200 -35 -218 -99 -4 -14 -7 -90 -7 -170 0
-127 2 -149 20 -179 11 -19 27 -37 35 -41 8 -4 25 -12 37 -18 32 -17 406 -16
454 1 75 26 99 84 99 245 0 182 -27 232 -138 250 -89 15 -178 19 -282 11z"/>
</g>
</svg>
