<?xml version="1.0" standalone="no"?>
<!DOCTYPE svg PUBLIC "-//W3C//DTD SVG 20010904//EN"
 "http://www.w3.org/TR/2001/REC-SVG-20010904/DTD/svg10.dtd">
<svg version="1.0" xmlns="http://www.w3.org/2000/svg"
 width="512.000000pt" height="512.000000pt" viewBox="0 0 512.000000 512.000000"
 preserveAspectRatio="xMidYMid meet">
<metadata>
Created by potrace 1.16, written by Peter Selinger 2001-2019
</metadata>
<g transform="translate(0.000000,512.000000) scale(0.100000,-0.100000)"
fill="#5353d3" stroke="none">
<path d="M2423 5097 c21 -17 18 -19 -46 -37 -33 -9 -44 -16 -35 -21 8 -6 0 -6
-19 -3 -22 4 -33 3 -33 -5 0 -6 -15 -11 -32 -10 -31 1 -32 1 -8 9 l25 8 -25 1
c-14 1 -36 4 -50 7 -20 5 -22 4 -10 -6 12 -9 10 -11 -12 -6 -15 3 -30 2 -33
-4 -3 -5 -17 -10 -31 -10 -15 0 -23 -4 -19 -10 4 -7 -2 -9 -18 -5 -14 4 -28 2
-31 -4 -4 -7 -1 -9 8 -5 8 3 23 1 33 -5 16 -9 16 -10 -6 -11 -14 0 -34 -8 -45
-18 -12 -10 -37 -25 -56 -32 -19 -8 -41 -21 -48 -30 -8 -8 -11 -9 -7 -3 4 9 1
11 -9 7 -9 -3 -13 -11 -9 -17 4 -6 0 -8 -11 -4 -10 4 -15 3 -11 -3 3 -5 -9
-16 -28 -23 -18 -8 -55 -31 -81 -50 -29 -23 -53 -34 -63 -30 -10 4 -14 2 -9
-5 3 -6 -2 -16 -11 -22 -16 -10 -15 -10 5 -5 34 10 27 -14 -8 -26 -16 -6 -30
-15 -30 -21 0 -5 -4 -7 -8 -4 -10 6 -115 -24 -108 -31 3 -3 26 2 53 11 l48 16
-35 -30 c-19 -16 -48 -33 -64 -37 l-28 -6 23 -13 c21 -11 22 -13 7 -19 -10 -4
-18 -13 -18 -19 0 -7 -18 -22 -40 -35 -22 -12 -38 -27 -35 -32 4 -5 8 -9 11
-9 3 0 3 4 0 9 -5 7 15 21 30 21 15 0 -33 -51 -51 -56 -24 -6 -68 -62 -80
-101 -3 -13 -1 -31 5 -40 10 -16 10 -16 5 3 -3 12 2 38 12 58 13 29 19 33 26
21 5 -9 3 -30 -5 -53 -16 -46 -38 -90 -38 -77 0 6 -11 -14 -25 -43 -29 -63
-30 -69 -10 -69 9 0 14 6 11 13 -3 8 -1 16 3 19 13 7 51 83 51 100 0 7 13 28
28 45 l29 31 -5 -63 c-2 -35 -5 -75 -6 -90 0 -16 -4 -28 -8 -28 -5 0 -9 -17
-9 -37 -2 -31 -3 -33 -6 -10 -2 15 -9 27 -14 27 -12 0 -12 66 2 93 10 22 10
22 -6 2 -13 -16 -16 -33 -12 -80 4 -36 2 -52 -3 -40 -7 19 -8 18 -13 -5 -10
-44 -16 -157 -7 -130 7 22 8 20 9 -15 1 -22 5 -57 10 -78 6 -26 5 -59 -5 -105
-17 -80 -17 -81 -3 -62 8 11 9 5 4 -24 -5 -27 -2 -41 7 -47 10 -7 10 -11 0
-21 -9 -9 -12 -9 -14 3 0 7 -4 -6 -7 -31 -6 -48 8 -150 21 -150 10 0 10 -1 -2
58 -7 32 -7 56 -1 73 9 21 10 19 12 -21 0 -25 1 -54 0 -65 -2 -17 0 -18 9 -5
9 12 10 9 5 -15 -4 -16 -11 -31 -16 -33 -11 -5 -12 -29 -1 -34 5 -1 12 -22 16
-45 l6 -43 -37 0 c-46 0 -58 -8 -60 -40 0 -14 -7 -59 -13 -100 -15 -95 -8
-304 11 -345 8 -16 26 -48 39 -70 14 -22 24 -42 22 -43 -2 -2 5 -10 15 -19 10
-8 11 -11 4 -7 -16 8 67 -104 91 -123 7 -6 27 -14 44 -17 27 -6 30 -10 27 -39
-2 -29 -2 -30 6 -7 7 22 9 23 16 7 4 -10 2 -24 -5 -32 -11 -13 -7 -19 11 -17
6 1 19 -106 19 -156 l0 -24 -212 7 c-254 9 -281 4 -331 -58 -34 -42 -67 -99
-67 -114 1 -4 13 15 28 42 l27 50 3 -79 c2 -44 -2 -101 -8 -128 -5 -27 -10
-66 -11 -86 l-1 -37 -18 39 c-11 24 -20 33 -23 25 -4 -8 -4 18 0 57 3 45 1 74
-5 78 -6 3 -37 -34 -71 -86 -90 -140 -99 -148 -168 -149 -32 -1 -82 -4 -111
-7 -51 -7 -55 -10 -127 -91 -45 -50 -75 -92 -75 -105 1 -17 4 -14 15 11 19 44
97 83 167 83 29 1 80 7 113 15 69 17 85 18 85 7 0 -14 -155 -45 -200 -40 -67
7 -96 -12 -129 -85 -41 -91 -48 -136 -11 -67 34 64 39 62 10 -4 -10 -25 -16
-46 -11 -46 5 0 6 -12 3 -27 -2 -16 -2 -25 2 -22 3 3 7 18 8 32 2 27 12 35 23
18 6 -11 -62 -188 -76 -197 -5 -3 -9 5 -10 18 -1 13 -7 -6 -14 -42 -15 -69
-18 -112 -6 -70 7 22 10 18 25 -35 10 -33 27 -71 39 -84 l22 -24 -30 19 c-29
19 -29 19 -21 -1 26 -63 25 -75 -6 -140 -16 -36 -34 -65 -39 -65 -5 0 -10 26
-11 58 l-1 57 -6 -64 -6 -63 -162 -87 c-89 -47 -165 -90 -170 -94 -4 -5 85 39
198 97 113 58 210 106 215 106 24 -1 -161 -108 -279 -162 -72 -33 -142 -68
-154 -77 l-22 -16 -1 -343 0 -342 2268 4 c1247 3 2285 5 2307 5 22 0 147 -2
277 -5 l237 -5 -25 67 c-46 124 -59 142 -142 195 -42 27 -83 47 -90 44 -8 -3
-10 0 -6 7 5 8 2 9 -9 5 -10 -4 -16 -2 -14 5 1 6 -4 13 -12 16 -9 3 -11 0 -6
-9 5 -8 4 -11 -1 -6 -5 5 -9 14 -9 20 0 6 -29 27 -65 46 -36 20 -105 63 -155
97 -49 34 -159 99 -243 144 -172 95 -164 80 -105 189 19 35 32 65 29 68 -2 3
3 13 12 24 9 11 17 23 17 28 0 5 26 45 59 90 l59 82 -21 22 c-11 12 -27 38
-35 57 -18 43 -66 89 -132 127 -27 16 -56 40 -62 54 -8 15 -13 69 -13 146 l0
121 -62 45 c-35 24 -116 70 -181 102 -123 61 -145 80 -167 150 -16 51 -63 102
-117 127 -48 21 -48 21 -30 40 29 31 67 100 61 110 -5 7 -3 8 6 3 10 -6 12 -4
6 10 -4 10 -3 21 1 24 12 9 44 103 33 96 -6 -3 -10 4 -10 17 0 44 -20 -4 -21
-52 l-1 -45 -13 35 -14 35 3 -48 c3 -46 -15 -122 -35 -141 -16 -18 -39 -15
-39 4 0 10 4 22 10 25 6 3 10 -4 10 -16 0 -32 19 -11 23 26 3 17 2 22 0 12 -2
-9 -9 -17 -14 -17 -6 0 -7 5 -3 12 4 6 3 8 -4 4 -5 -3 -13 -1 -15 4 -3 6 -4 5
-3 -2 1 -6 -6 -20 -16 -30 -10 -10 -18 -28 -19 -40 0 -22 -1 -22 -8 -3 -5 11
-6 25 -4 31 2 7 0 15 -6 19 -7 4 -11 -5 -11 -24 0 -17 -4 -32 -10 -32 -5 -1
-16 -2 -22 -3 -7 -1 -16 5 -20 14 -4 9 -7 -1 -7 -22 -1 -48 -21 -50 -21 -2 0
19 -4 33 -9 30 -4 -3 -6 -16 -4 -29 3 -17 0 -24 -11 -24 -10 0 -17 15 -22 46
-7 40 -8 43 -15 21 -10 -36 -11 -58 -1 -43 5 8 8 -1 8 -22 0 -24 -5 -35 -14
-35 -9 0 -13 7 -10 18 3 10 -1 26 -8 36 -10 15 -11 11 -7 -25 4 -30 3 -40 -5
-35 -7 4 -12 2 -12 -5 0 -8 -4 -8 -15 1 -8 7 -14 22 -14 34 1 17 2 18 6 3 5
-20 24 -18 31 4 3 8 1 11 -3 7 -4 -4 -16 2 -28 12 -11 11 -23 17 -26 14 -3 -4
-1 -9 6 -11 8 -3 9 -12 4 -27 -5 -12 -7 -35 -5 -52 4 -28 4 -28 -6 -5 -6 13
-8 32 -5 42 3 9 0 21 -6 25 -8 4 -9 3 -5 -4 4 -7 4 -12 -1 -12 -4 0 -13 -11
-20 -25 -8 -19 -8 -23 0 -18 7 4 6 -1 -2 -10 -13 -16 -14 -16 -27 0 -12 16
-14 15 -20 -14 -3 -18 -11 -33 -16 -33 -5 0 -7 14 -3 33 6 31 6 32 -8 8 l-15
-24 -6 21 c-4 12 -12 22 -17 22 -10 0 -13 -7 -24 -55 -7 -27 -8 -28 -15 -10
l-9 20 -1 -20 c-2 -17 -3 -16 -10 5 -4 14 -9 18 -10 10 -1 -11 -4 -9 -11 5 -8
18 -9 17 -6 -6 2 -14 -1 -26 -8 -26 -6 0 -10 14 -9 31 1 19 0 22 -3 8 -2 -12
-8 -20 -13 -17 -5 3 -16 -8 -25 -25 -12 -24 -19 -29 -29 -21 -7 6 -16 7 -20 3
-4 -4 -4 7 -1 23 7 28 6 29 -8 11 -14 -19 -15 -19 -21 2 -9 26 -23 29 -29 5
-4 -16 -5 -16 -6 -1 -1 17 -34 20 -58 5 -8 -5 -13 5 -15 30 l-3 38 -17 -34
-16 -34 -10 44 c-7 30 -10 36 -11 19 -2 -23 -3 -24 -15 -7 -10 13 -15 15 -19
5 -3 -8 -9 -4 -15 12 -7 17 -11 19 -11 8 -1 -9 -6 -20 -12 -24 -9 -5 -10 1 -5
21 7 26 6 27 -10 14 -16 -13 -16 -12 -1 17 16 31 16 32 -3 27 -11 -3 -17 -10
-14 -15 4 -6 -3 -5 -15 1 -23 13 -28 22 -8 17 6 -1 9 -1 4 1 -4 3 -4 9 -1 15
4 6 -3 5 -15 -2 -12 -6 -19 -14 -17 -18 3 -5 -4 -9 -16 -9 -14 -1 -18 3 -14
13 4 10 2 13 -7 7 -27 -17 -39 -12 -20 9 19 23 20 23 -34 1 -11 -4 -14 -3 -9
5 4 7 2 12 -5 12 -9 0 -9 3 0 14 10 12 8 13 -10 9 -18 -5 -21 -3 -16 10 3 9 1
19 -5 23 -7 5 -8 2 -3 -6 5 -8 3 -11 -6 -8 -8 3 -21 2 -30 -3 -11 -5 -16 -3
-16 6 0 8 3 12 7 10 3 -2 12 1 20 7 13 8 13 9 -1 5 -9 -3 -22 -1 -30 3 -10 7
-8 11 10 18 21 7 22 10 7 15 -10 4 -22 5 -27 2 -5 -4 -6 1 -2 11 5 14 3 15
-16 4 -20 -10 -23 -9 -28 9 -3 11 -9 18 -14 15 -6 -3 -7 9 -4 28 3 18 2 29 -2
23 -11 -13 -47 -19 -39 -6 4 5 2 12 -4 16 -6 4 -8 11 -5 16 4 5 1 9 -4 9 -6 0
-11 -4 -11 -10 0 -5 -5 -10 -11 -10 -5 0 -8 4 -5 9 4 5 1 11 -6 13 -10 4 -10
10 0 29 12 23 12 23 8 2 -3 -17 1 -23 15 -23 10 0 19 5 19 11 0 5 -5 7 -12 3
-8 -5 -9 0 -6 14 4 12 2 20 -3 16 -5 -3 -9 0 -9 7 0 6 -9 1 -19 -12 l-19 -24
5 28 c4 22 2 26 -11 21 -9 -3 -16 -11 -16 -17 0 -6 -2 -8 -5 -6 -2 3 -1 20 5
37 6 23 6 30 -2 26 -8 -5 -9 -1 -4 11 5 15 4 16 -9 5 -17 -15 -21 -35 -3 -24
7 4 8 3 4 -5 -13 -20 -28 0 -22 30 3 16 1 29 -4 29 -6 0 -10 7 -10 16 0 8 -4
12 -10 9 -5 -3 -10 3 -10 14 0 12 -4 21 -8 21 -5 0 -17 18 -28 40 -10 22 -22
40 -26 40 -5 0 -8 12 -8 26 0 14 -3 23 -7 21 -5 -3 -9 11 -11 31 -1 19 -17 72
-36 116 -77 187 -81 200 -81 268 0 40 -5 72 -12 80 -16 15 -17 62 -3 88 13 23
98 63 114 52 6 -4 40 -7 76 -8 36 0 99 -4 140 -8 47 -4 81 -3 90 3 11 8 5 10
-26 9 -48 -1 -90 17 -62 27 9 4 22 7 30 9 19 2 38 16 38 26 0 5 -13 7 -30 4
-19 -4 -30 -2 -30 5 0 6 15 12 33 12 17 1 24 3 15 6 -10 2 -18 10 -18 17 0 8
17 12 50 12 56 0 64 -9 23 -25 -26 -10 -26 -11 -3 -6 14 2 32 5 41 5 17 0 39
39 39 70 0 26 8 25 53 -6 36 -24 41 -44 11 -44 -8 0 -13 -4 -10 -9 4 -5 37 -8
74 -6 55 3 69 1 69 -10 0 -8 -4 -15 -9 -15 -5 0 -6 -4 -3 -10 3 -5 -2 -21 -11
-35 -28 -44 -9 -38 39 12 43 44 47 46 73 34 25 -11 26 -14 21 -66 -6 -60 -28
-106 -70 -144 -29 -27 -30 -30 -51 -149 -8 -40 -19 -79 -25 -86 -24 -29 24
-114 65 -116 21 0 10 -31 -13 -36 -21 -6 -22 -7 -7 -19 13 -9 14 -14 5 -19 -7
-5 -15 -5 -18 -2 -3 3 -12 1 -20 -5 -7 -6 -13 -9 -13 -5 0 3 -21 -8 -46 -24
-26 -16 -51 -27 -57 -23 -6 4 -7 1 -2 -7 5 -9 2 -10 -13 -6 -11 4 -23 2 -27
-3 -4 -7 1 -8 11 -4 11 4 15 3 10 -5 -14 -23 12 -20 33 4 12 14 26 22 31 19 6
-3 10 -2 10 3 0 5 9 12 20 15 30 8 24 0 -22 -29 -24 -14 -61 -43 -82 -63 -21
-20 -36 -30 -32 -23 4 6 2 12 -4 12 -7 0 -6 5 2 14 7 8 16 10 19 4 3 -5 11 -2
18 6 8 10 9 16 1 21 -13 8 -103 -63 -95 -74 2 -5 -4 -16 -15 -26 -36 -33 -29
-11 17 49 24 32 39 55 32 50 -17 -10 -70 -71 -70 -81 -1 -4 -5 -13 -10 -20 -7
-7 -6 -14 1 -18 7 -4 7 -12 0 -26 -6 -11 -8 -25 -4 -31 4 -6 3 -8 -3 -5 -6 4
-14 0 -17 -9 -3 -8 -2 -12 4 -9 6 3 13 0 16 -8 5 -15 20 -17 40 -5 6 4 10 27
9 50 -2 41 14 90 34 102 8 5 4 -21 -10 -72 -2 -8 5 -19 16 -25 10 -7 26 -18
34 -26 12 -10 40 -12 135 -7 152 9 159 11 152 42 -5 18 -3 22 9 18 8 -4 15 -1
15 6 0 10 35 12 153 8 143 -5 156 -7 222 -36 39 -17 94 -34 123 -38 42 -5 58
-13 82 -41 31 -35 33 -34 32 27 0 52 -2 56 -11 41 -7 -11 -10 -9 -16 8 -3 11
-13 21 -21 21 -8 0 -14 5 -14 10 0 14 -23 8 -36 -10 -16 -19 -44 -6 -122 59
-84 70 -104 77 -169 55 -52 -18 -53 -18 -98 4 -25 12 -53 22 -63 22 -9 0 -61
-20 -114 -44 -54 -25 -98 -43 -98 -42 0 2 9 14 21 27 12 13 30 35 41 49 13 16
22 21 25 13 3 -9 11 -6 26 7 24 23 44 27 31 7 -5 -7 -1 -5 8 6 12 12 25 17 40
13 13 -3 17 -3 10 0 -8 4 -4 14 15 35 16 16 28 35 29 42 0 6 3 19 7 27 3 8 8
27 11 43 4 18 13 27 26 27 11 0 32 14 47 30 31 35 42 37 73 10 13 -11 19 -20
15 -20 -4 0 0 -9 10 -20 10 -11 27 -20 37 -20 25 0 68 47 67 74 0 18 -2 17
-10 -6 -13 -33 -37 -45 -32 -15 4 24 -48 87 -71 87 -7 0 -25 -9 -40 -21 -21
-17 -26 -18 -26 -5 0 10 -9 16 -22 16 -25 1 -58 21 -58 36 0 5 -12 23 -27 40
-57 63 -56 60 -37 93 16 27 16 37 6 93 -6 35 -17 101 -22 148 -8 60 -21 106
-45 157 -19 40 -36 85 -37 102 -1 16 -5 28 -9 25 -9 -5 -30 21 -27 34 2 5 -1
11 -7 12 -5 1 -19 9 -29 18 -15 13 -17 13 -11 2 7 -12 6 -13 -6 -3 -8 6 -26
13 -41 15 -14 2 -32 9 -40 16 -8 6 -18 9 -21 5 -4 -3 -67 -5 -139 -2 -73 2
-153 3 -176 3 -24 0 -39 2 -33 4 6 2 9 8 6 12 -3 5 -20 1 -38 -9 -60 -33 -67
-33 -66 -3 0 15 -4 58 -11 97 -13 85 -5 152 21 168 11 7 24 28 29 47 l10 35
75 1 c41 1 72 -2 70 -6 -3 -5 -26 -22 -52 -39 -25 -17 -42 -31 -35 -31 16 0
96 64 93 74 -3 10 19 26 37 26 7 0 10 -6 7 -12 -4 -7 5 1 20 17 14 17 30 39
36 50 13 30 -1 -51 -18 -99 -21 -62 -8 -52 18 14 13 32 31 69 39 81 16 20 16
17 12 -40 -2 -34 -2 -61 2 -61 3 0 12 24 21 53 15 52 83 177 94 174 3 -1 15 4
26 10 11 6 42 14 69 18 27 3 55 9 63 12 12 5 14 1 8 -18 -17 -55 -78 -186 -98
-209 l-22 -25 26 23 c14 12 29 19 33 15 4 -4 4 1 0 11 -5 13 -4 17 4 12 8 -5
10 -1 5 10 -5 13 -3 15 7 9 9 -6 11 -4 5 5 -4 7 -3 15 1 19 5 3 18 25 28 48
10 23 28 50 39 60 15 13 18 14 13 3 -5 -8 2 -3 15 12 20 23 35 29 89 34 36 3
70 10 75 14 6 4 24 10 40 13 22 5 17 0 -20 -18 -27 -14 -43 -25 -35 -25 9 0
48 16 88 35 40 19 72 29 72 24 0 -7 7 -8 18 -4 49 21 163 35 254 30 102 -5
144 -19 179 -60 25 -29 137 -245 142 -275 3 -14 10 -38 16 -53 6 -16 11 -52
11 -80 0 -29 13 -91 29 -142 31 -97 38 -151 46 -345 3 -69 10 -171 17 -227 6
-56 9 -146 6 -200 -2 -54 -2 -89 0 -79 3 15 6 16 13 5 6 -9 7 -4 3 15 -5 21
-4 27 5 22 6 -4 11 -1 11 6 1 7 6 0 13 -16 11 -25 12 -15 10 75 -2 60 -7 103
-13 102 -15 -4 -4 109 15 146 10 18 18 44 18 57 0 13 3 21 8 18 5 -3 9 3 9 13
1 10 6 63 11 118 6 55 13 129 16 164 3 35 8 59 12 52 4 -7 13 24 19 68 12 82
9 101 -33 243 -9 32 -12 76 -8 140 l5 93 -66 65 c-36 36 -66 70 -66 77 0 6 -4
15 -10 18 -6 4 -7 -1 -3 -12 6 -17 5 -17 -15 1 -12 11 -22 20 -22 21 0 1 20 1
44 1 40 -1 45 1 48 25 2 15 -1 26 -8 26 -6 0 -9 -8 -7 -18 5 -18 3 -18 -40 -3
-29 10 -44 20 -41 28 6 15 47 36 71 36 12 0 13 3 4 13 -6 8 -23 12 -42 9 -18
-3 -26 -8 -19 -12 8 -5 7 -9 -5 -14 -24 -9 -25 -8 -25 12 -1 45 -162 204 -190
187 -5 -3 -10 -1 -10 4 0 6 -5 11 -12 11 -25 0 -175 80 -216 115 -36 32 -50
37 -97 39 -31 1 -61 8 -67 14 -15 15 -32 16 -23 2 10 -16 -1 -11 -16 7 -12 14
-12 16 1 9 9 -4 8 -1 -2 7 -10 8 -18 19 -18 25 0 5 -8 13 -17 17 -21 8 -29 6
-26 -6 2 -4 -4 -6 -12 -3 -8 4 -12 10 -9 15 3 5 -1 6 -9 3 -7 -2 -27 1 -43 7
-16 7 -56 12 -89 11 -51 0 -55 1 -25 7 26 6 13 8 -55 9 -50 0 -104 3 -120 7
-19 4 -25 3 -17 -2 14 -11 -140 -9 -160 2 -7 3 -5 0 5 -8z m-101 -1428 c16
-12 26 -25 21 -29 -7 -7 -106 -32 -182 -46 -36 -7 -56 3 -42 20 8 10 9 16 1
21 -38 23 26 51 123 54 35 1 57 -5 79 -20z m1067 -1929 c-16 -107 -36 -244
-44 -305 -8 -60 -20 -130 -25 -155 -7 -27 -9 -106 -6 -190 5 -170 4 -159 16
-140 5 8 10 10 10 4 0 -17 -82 -106 -127 -137 -62 -43 -211 -70 -353 -64 -63
3 -127 9 -141 15 -19 8 -49 52 -117 174 -50 89 -111 207 -137 261 -25 53 -56
104 -68 111 -17 12 -38 13 -97 6 -73 -9 -253 -11 -198 -3 18 3 25 9 21 19 -3
9 1 14 13 14 15 0 16 2 5 9 -21 13 88 25 152 17 52 -7 107 -33 107 -50 0 -16
211 2 230 19 9 8 24 15 34 15 22 0 99 77 91 90 -3 6 -1 10 6 10 10 0 10 3 1
12 -17 17 -15 28 4 28 11 0 15 6 11 19 -3 12 0 18 7 16 6 -2 36 -6 66 -9 48
-5 53 -4 37 8 -16 12 -16 14 -2 20 9 3 25 1 35 -4 30 -16 68 -12 79 9 6 10 7
22 3 26 -4 4 14 5 40 2 26 -4 50 -3 53 2 3 5 13 7 23 5 10 -3 22 3 29 14 10
17 9 19 -7 15 -11 -3 -17 -9 -15 -14 3 -4 -4 -7 -15 -6 -24 2 -25 4 -3 25 9 9
28 15 42 14 21 -2 23 -1 11 7 -13 10 -13 11 0 11 13 0 13 1 0 10 -12 8 -11 10
6 10 23 0 48 23 37 33 -9 10 18 38 31 30 6 -3 8 -2 3 2 -4 5 8 25 27 44 20 20
35 39 36 44 0 4 0 11 0 16 0 5 17 20 38 32 20 12 45 31 56 41 10 11 19 18 21
16 2 -2 -10 -91 -26 -198z m966 -1145 c154 -82 298 -185 282 -201 -1 -2 -32 1
-67 5 -55 7 -59 9 -22 10 31 1 42 5 42 17 0 8 -4 13 -9 9 -5 -3 -17 5 -25 17
-11 15 -16 18 -17 8 0 -11 -2 -11 -6 -2 -2 6 -9 10 -14 6 -5 -3 -9 0 -9 5 0 6
-6 11 -12 11 -7 0 -31 14 -52 30 -22 17 -48 30 -58 30 -40 0 -105 43 -159 104
l-34 40 45 -26 c25 -14 77 -42 115 -63z"/>
<path d="M3458 3795 c-3 -3 -36 -8 -74 -10 -38 -3 -82 -8 -99 -11 -17 -3 -25
-2 -18 3 6 4 -28 6 -75 5 -74 -3 -92 -8 -119 -28 -22 -17 -31 -20 -27 -9 3 8
1 15 -5 15 -10 0 -15 -14 -12 -33 1 -5 -3 -6 -9 -2 -6 4 -10 -7 -11 -27 l-1
-33 -9 33 c-12 39 -22 43 -13 5 10 -41 24 -52 30 -25 9 31 24 28 24 -5 0 -18
-12 -39 -31 -58 -17 -16 -37 -42 -45 -57 -18 -35 -7 -42 60 -39 l51 2 -29 -30
-28 -30 33 -5 c109 -17 139 -17 133 -1 -3 8 -1 15 4 15 17 0 62 -22 62 -31 0
-4 13 -12 29 -17 25 -9 32 -7 50 12 12 12 21 28 21 34 0 20 26 13 55 -14 34
-31 22 -44 -39 -44 -81 0 -22 -13 78 -17 l104 -5 -2 36 c-4 47 -25 77 -83 115
-54 36 -120 57 -210 66 -35 4 -61 11 -58 15 3 4 33 15 67 23 35 9 93 24 129
33 l67 16 50 -28 c37 -21 48 -32 41 -40 -8 -9 -4 -11 12 -7 17 5 20 3 14 -7
-6 -9 -4 -12 7 -8 9 4 15 0 15 -8 0 -10 -7 -12 -20 -8 -17 5 -18 4 -6 -9 8 -8
17 -13 20 -11 3 2 20 -1 37 -5 27 -8 30 -7 29 10 -1 10 -6 19 -11 19 -5 0 -7
3 -3 6 9 9 -19 62 -60 112 -38 46 -94 76 -127 66 -21 -6 -21 -6 -1 10 11 8 17
16 14 16 -3 0 -8 -2 -11 -5z"/>
<path d="M2727 2428 c-12 -26 -27 -47 -34 -48 -17 0 -4 -30 13 -30 8 0 14 7
14 16 0 13 3 14 15 4 8 -7 13 -16 10 -20 -3 -4 2 -11 11 -14 8 -3 13 -2 10 2
-3 5 1 9 8 9 17 0 15 -19 -3 -41 -12 -14 -11 -16 4 -10 14 6 16 4 10 -7 -6 -9
0 -8 19 5 16 10 25 13 22 7 -4 -6 -3 -11 3 -11 5 0 13 10 17 23 7 21 7 21 14
2 6 -17 8 -15 14 13 4 18 12 30 17 26 5 -3 8 10 7 32 -4 44 -24 56 -34 20 -8
-35 -24 -23 -24 20 0 40 -5 42 -29 12 -12 -15 -20 -18 -25 -10 -4 7 -2 12 3
12 6 0 11 6 11 14 0 8 10 17 23 19 12 3 0 4 -26 3 -47 -1 -48 -2 -70 -48z"/>
</g>
</svg>
